<mxfile host="app.diagrams.net" modified="2021-06-13T01:21:47.112Z" agent="5.0 (X11; Linux x86_64) AppleWebKit/537.36 (KHTML, like Gecko) Chrome/90.0.4430.93 Safari/537.36" etag="v6dFmMbQZYp3KW46Hm6A" version="14.7.7" type="github">
  <diagram id="TYsEaEMNFWNOag3v1iif" name="Page-1">
    <mxGraphModel dx="1185" dy="676" grid="1" gridSize="10" guides="1" tooltips="1" connect="1" arrows="1" fold="1" page="1" pageScale="1" pageWidth="827" pageHeight="1169" math="0" shadow="0">
      <root>
        <mxCell id="0" />
        <mxCell id="1" parent="0" />
        <mxCell id="ldGf9XZsLyRZcBgSeUy8-18" style="edgeStyle=none;rounded=0;orthogonalLoop=1;jettySize=auto;html=1;exitX=0;exitY=0;exitDx=0;exitDy=0;entryX=0.667;entryY=0.95;entryDx=0;entryDy=0;entryPerimeter=0;" parent="1" source="ldGf9XZsLyRZcBgSeUy8-1" target="ldGf9XZsLyRZcBgSeUy8-11" edge="1">
          <mxGeometry relative="1" as="geometry" />
        </mxCell>
        <mxCell id="ldGf9XZsLyRZcBgSeUy8-19" style="edgeStyle=none;rounded=0;orthogonalLoop=1;jettySize=auto;html=1;exitX=0;exitY=0.5;exitDx=0;exitDy=0;entryX=1;entryY=1;entryDx=0;entryDy=0;" parent="1" source="ldGf9XZsLyRZcBgSeUy8-1" target="ldGf9XZsLyRZcBgSeUy8-15" edge="1">
          <mxGeometry relative="1" as="geometry" />
        </mxCell>
        <mxCell id="ldGf9XZsLyRZcBgSeUy8-20" style="edgeStyle=none;rounded=0;orthogonalLoop=1;jettySize=auto;html=1;exitX=0;exitY=0.5;exitDx=0;exitDy=0;entryX=1;entryY=0.5;entryDx=0;entryDy=0;" parent="1" source="ldGf9XZsLyRZcBgSeUy8-1" target="ldGf9XZsLyRZcBgSeUy8-13" edge="1">
          <mxGeometry relative="1" as="geometry" />
        </mxCell>
        <mxCell id="ldGf9XZsLyRZcBgSeUy8-21" style="edgeStyle=none;rounded=0;orthogonalLoop=1;jettySize=auto;html=1;exitX=0;exitY=0.5;exitDx=0;exitDy=0;entryX=1;entryY=0.5;entryDx=0;entryDy=0;" parent="1" source="ldGf9XZsLyRZcBgSeUy8-1" target="ldGf9XZsLyRZcBgSeUy8-10" edge="1">
          <mxGeometry relative="1" as="geometry">
            <mxPoint x="610" y="479" as="targetPoint" />
          </mxGeometry>
        </mxCell>
        <mxCell id="ldGf9XZsLyRZcBgSeUy8-22" style="edgeStyle=none;rounded=0;orthogonalLoop=1;jettySize=auto;html=1;exitX=0;exitY=1;exitDx=0;exitDy=0;entryX=0.5;entryY=0;entryDx=0;entryDy=0;" parent="1" source="ldGf9XZsLyRZcBgSeUy8-1" target="ldGf9XZsLyRZcBgSeUy8-16" edge="1">
          <mxGeometry relative="1" as="geometry" />
        </mxCell>
        <mxCell id="ldGf9XZsLyRZcBgSeUy8-30" style="edgeStyle=none;rounded=0;orthogonalLoop=1;jettySize=auto;html=1;exitX=0;exitY=0;exitDx=0;exitDy=0;" parent="1" source="ldGf9XZsLyRZcBgSeUy8-1" target="ldGf9XZsLyRZcBgSeUy8-12" edge="1">
          <mxGeometry relative="1" as="geometry" />
        </mxCell>
        <mxCell id="ldGf9XZsLyRZcBgSeUy8-31" style="edgeStyle=none;rounded=0;orthogonalLoop=1;jettySize=auto;html=1;exitX=0;exitY=1;exitDx=0;exitDy=0;entryX=0.617;entryY=1;entryDx=0;entryDy=0;entryPerimeter=0;" parent="1" source="ldGf9XZsLyRZcBgSeUy8-1" target="ldGf9XZsLyRZcBgSeUy8-14" edge="1">
          <mxGeometry relative="1" as="geometry" />
        </mxCell>
        <mxCell id="ldGf9XZsLyRZcBgSeUy8-32" style="edgeStyle=none;rounded=0;orthogonalLoop=1;jettySize=auto;html=1;exitX=0;exitY=1;exitDx=0;exitDy=0;entryX=0.686;entryY=0.067;entryDx=0;entryDy=0;entryPerimeter=0;" parent="1" source="ldGf9XZsLyRZcBgSeUy8-1" target="ldGf9XZsLyRZcBgSeUy8-17" edge="1">
          <mxGeometry relative="1" as="geometry" />
        </mxCell>
        <mxCell id="Y7WxunnAGhrs0RHYik_--10" style="rounded=0;orthogonalLoop=1;jettySize=auto;html=1;exitX=0;exitY=0;exitDx=0;exitDy=0;entryX=1;entryY=0.5;entryDx=0;entryDy=0;" parent="1" source="ldGf9XZsLyRZcBgSeUy8-1" target="ldGf9XZsLyRZcBgSeUy8-2" edge="1">
          <mxGeometry relative="1" as="geometry" />
        </mxCell>
        <mxCell id="EZ2-l9n4eVcmhHuR-73A-5" style="rounded=1;orthogonalLoop=1;jettySize=auto;html=1;exitX=1;exitY=1;exitDx=0;exitDy=0;entryX=0.5;entryY=0;entryDx=0;entryDy=0;" edge="1" parent="1" source="ldGf9XZsLyRZcBgSeUy8-1" target="ldGf9XZsLyRZcBgSeUy8-39">
          <mxGeometry relative="1" as="geometry" />
        </mxCell>
        <mxCell id="EZ2-l9n4eVcmhHuR-73A-8" style="edgeStyle=orthogonalEdgeStyle;rounded=1;orthogonalLoop=1;jettySize=auto;html=1;entryX=0.5;entryY=0;entryDx=0;entryDy=0;" edge="1" parent="1" source="ldGf9XZsLyRZcBgSeUy8-1" target="EZ2-l9n4eVcmhHuR-73A-7">
          <mxGeometry relative="1" as="geometry" />
        </mxCell>
        <mxCell id="ldGf9XZsLyRZcBgSeUy8-1" value="User" style="whiteSpace=wrap;html=1;align=center;" parent="1" vertex="1">
          <mxGeometry x="320" y="418.38" width="130" height="40" as="geometry" />
        </mxCell>
        <mxCell id="ldGf9XZsLyRZcBgSeUy8-2" value="username" style="ellipse;whiteSpace=wrap;html=1;align=center;fontStyle=4;" parent="1" vertex="1">
          <mxGeometry x="115" y="278" width="70" height="30" as="geometry" />
        </mxCell>
        <mxCell id="ldGf9XZsLyRZcBgSeUy8-10" value="site" style="ellipse;whiteSpace=wrap;html=1;align=center;" parent="1" vertex="1">
          <mxGeometry x="90" y="410.5" width="60" height="20" as="geometry" />
        </mxCell>
        <mxCell id="ldGf9XZsLyRZcBgSeUy8-11" value="name" style="ellipse;whiteSpace=wrap;html=1;align=center;" parent="1" vertex="1">
          <mxGeometry x="100" y="314" width="60" height="20" as="geometry" />
        </mxCell>
        <mxCell id="ldGf9XZsLyRZcBgSeUy8-12" value="email" style="ellipse;whiteSpace=wrap;html=1;align=center;" parent="1" vertex="1">
          <mxGeometry x="160" y="223" width="60" height="20" as="geometry" />
        </mxCell>
        <mxCell id="ldGf9XZsLyRZcBgSeUy8-13" value="bio" style="ellipse;whiteSpace=wrap;html=1;align=center;" parent="1" vertex="1">
          <mxGeometry x="60" y="378" width="60" height="20" as="geometry" />
        </mxCell>
        <mxCell id="ldGf9XZsLyRZcBgSeUy8-14" value="created_at" style="ellipse;whiteSpace=wrap;html=1;align=center;" parent="1" vertex="1">
          <mxGeometry x="120" y="498" width="60" height="25" as="geometry" />
        </mxCell>
        <mxCell id="ldGf9XZsLyRZcBgSeUy8-15" value="organizacion" style="ellipse;whiteSpace=wrap;html=1;align=center;" parent="1" vertex="1">
          <mxGeometry x="80" y="343" width="70" height="20" as="geometry" />
        </mxCell>
        <mxCell id="ldGf9XZsLyRZcBgSeUy8-16" value="location" style="ellipse;whiteSpace=wrap;html=1;align=center;" parent="1" vertex="1">
          <mxGeometry x="120" y="464" width="60" height="20" as="geometry" />
        </mxCell>
        <mxCell id="ldGf9XZsLyRZcBgSeUy8-17" value="update_at" style="ellipse;whiteSpace=wrap;html=1;align=center;" parent="1" vertex="1">
          <mxGeometry x="140" y="574" width="60" height="20" as="geometry" />
        </mxCell>
        <mxCell id="ldGf9XZsLyRZcBgSeUy8-25" value="has" style="shape=rhombus;perimeter=rhombusPerimeter;whiteSpace=wrap;html=1;align=center;" parent="1" vertex="1">
          <mxGeometry x="977" y="411.5" width="90" height="55" as="geometry" />
        </mxCell>
        <mxCell id="ldGf9XZsLyRZcBgSeUy8-35" value="" style="endArrow=none;html=1;rounded=0;entryX=0;entryY=0.5;entryDx=0;entryDy=0;exitX=1;exitY=0.5;exitDx=0;exitDy=0;" parent="1" target="ldGf9XZsLyRZcBgSeUy8-25" edge="1" source="ldGf9XZsLyRZcBgSeUy8-1">
          <mxGeometry relative="1" as="geometry">
            <mxPoint x="790" y="439" as="sourcePoint" />
            <mxPoint x="880" y="439" as="targetPoint" />
          </mxGeometry>
        </mxCell>
        <mxCell id="ldGf9XZsLyRZcBgSeUy8-39" value="modify" style="shape=rhombus;perimeter=rhombusPerimeter;whiteSpace=wrap;html=1;align=center;" parent="1" vertex="1">
          <mxGeometry x="677.5" y="609" width="95" height="50" as="geometry" />
        </mxCell>
        <mxCell id="ldGf9XZsLyRZcBgSeUy8-50" style="edgeStyle=none;rounded=0;orthogonalLoop=1;jettySize=auto;html=1;exitX=0;exitY=0;exitDx=0;exitDy=0;entryX=0;entryY=1;entryDx=0;entryDy=0;" parent="1" source="ldGf9XZsLyRZcBgSeUy8-41" target="ldGf9XZsLyRZcBgSeUy8-49" edge="1">
          <mxGeometry relative="1" as="geometry" />
        </mxCell>
        <mxCell id="ldGf9XZsLyRZcBgSeUy8-51" style="edgeStyle=none;rounded=0;orthogonalLoop=1;jettySize=auto;html=1;exitX=0.25;exitY=0;exitDx=0;exitDy=0;entryX=0.317;entryY=0.933;entryDx=0;entryDy=0;entryPerimeter=0;" parent="1" source="ldGf9XZsLyRZcBgSeUy8-41" target="ldGf9XZsLyRZcBgSeUy8-47" edge="1">
          <mxGeometry relative="1" as="geometry" />
        </mxCell>
        <mxCell id="ldGf9XZsLyRZcBgSeUy8-52" style="edgeStyle=none;rounded=0;orthogonalLoop=1;jettySize=auto;html=1;entryX=0.4;entryY=1.133;entryDx=0;entryDy=0;entryPerimeter=0;" parent="1" source="ldGf9XZsLyRZcBgSeUy8-41" target="ldGf9XZsLyRZcBgSeUy8-46" edge="1">
          <mxGeometry relative="1" as="geometry" />
        </mxCell>
        <mxCell id="ldGf9XZsLyRZcBgSeUy8-53" style="edgeStyle=none;rounded=0;orthogonalLoop=1;jettySize=auto;html=1;exitX=0.75;exitY=0;exitDx=0;exitDy=0;entryX=0.5;entryY=1;entryDx=0;entryDy=0;" parent="1" source="ldGf9XZsLyRZcBgSeUy8-41" target="ldGf9XZsLyRZcBgSeUy8-45" edge="1">
          <mxGeometry relative="1" as="geometry" />
        </mxCell>
        <mxCell id="ldGf9XZsLyRZcBgSeUy8-54" style="edgeStyle=none;rounded=0;orthogonalLoop=1;jettySize=auto;html=1;exitX=1;exitY=0;exitDx=0;exitDy=0;entryX=0.333;entryY=1.1;entryDx=0;entryDy=0;entryPerimeter=0;" parent="1" source="ldGf9XZsLyRZcBgSeUy8-41" target="ldGf9XZsLyRZcBgSeUy8-44" edge="1">
          <mxGeometry relative="1" as="geometry" />
        </mxCell>
        <mxCell id="ldGf9XZsLyRZcBgSeUy8-55" style="edgeStyle=none;rounded=0;orthogonalLoop=1;jettySize=auto;html=1;exitX=0.25;exitY=1;exitDx=0;exitDy=0;" parent="1" source="ldGf9XZsLyRZcBgSeUy8-41" target="ldGf9XZsLyRZcBgSeUy8-43" edge="1">
          <mxGeometry relative="1" as="geometry" />
        </mxCell>
        <mxCell id="Y7WxunnAGhrs0RHYik_--1" style="edgeStyle=orthogonalEdgeStyle;rounded=0;orthogonalLoop=1;jettySize=auto;html=1;entryX=0.5;entryY=0;entryDx=0;entryDy=0;" parent="1" source="ldGf9XZsLyRZcBgSeUy8-41" target="Y7WxunnAGhrs0RHYik_--15" edge="1">
          <mxGeometry relative="1" as="geometry" />
        </mxCell>
        <mxCell id="ldGf9XZsLyRZcBgSeUy8-41" value="repository" style="whiteSpace=wrap;html=1;align=center;" parent="1" vertex="1">
          <mxGeometry x="1287" y="419" width="163" height="40" as="geometry" />
        </mxCell>
        <mxCell id="ldGf9XZsLyRZcBgSeUy8-42" value="" style="line;strokeWidth=1;rotatable=0;dashed=0;labelPosition=right;align=left;verticalAlign=middle;spacingTop=0;spacingLeft=6;points=[];portConstraint=eastwest;" parent="1" vertex="1">
          <mxGeometry x="1067" y="434" width="223" height="10" as="geometry" />
        </mxCell>
        <mxCell id="ldGf9XZsLyRZcBgSeUy8-43" value="update_at" style="ellipse;whiteSpace=wrap;html=1;align=center;" parent="1" vertex="1">
          <mxGeometry x="1240" y="479" width="70" height="20" as="geometry" />
        </mxCell>
        <mxCell id="ldGf9XZsLyRZcBgSeUy8-44" value="cretead_at" style="ellipse;whiteSpace=wrap;html=1;align=center;" parent="1" vertex="1">
          <mxGeometry x="1390" y="339" width="63" height="20" as="geometry" />
        </mxCell>
        <mxCell id="ldGf9XZsLyRZcBgSeUy8-45" value="colaborators" style="ellipse;whiteSpace=wrap;html=1;align=center;" parent="1" vertex="1">
          <mxGeometry x="1360" y="279" width="70" height="30" as="geometry" />
        </mxCell>
        <mxCell id="ldGf9XZsLyRZcBgSeUy8-46" value="url" style="ellipse;whiteSpace=wrap;html=1;align=center;" parent="1" vertex="1">
          <mxGeometry x="1320" y="319" width="60" height="30" as="geometry" />
        </mxCell>
        <mxCell id="ldGf9XZsLyRZcBgSeUy8-47" value="name" style="ellipse;whiteSpace=wrap;html=1;align=center;" parent="1" vertex="1">
          <mxGeometry x="1270" y="349" width="60" height="30" as="geometry" />
        </mxCell>
        <mxCell id="ldGf9XZsLyRZcBgSeUy8-49" value="id" style="ellipse;whiteSpace=wrap;html=1;align=center;fontStyle=4;" parent="1" vertex="1">
          <mxGeometry x="1244" y="319" width="66" height="30" as="geometry" />
        </mxCell>
        <mxCell id="ldGf9XZsLyRZcBgSeUy8-62" style="edgeStyle=none;rounded=0;orthogonalLoop=1;jettySize=auto;html=1;exitX=0;exitY=1;exitDx=0;exitDy=0;" parent="1" source="ldGf9XZsLyRZcBgSeUy8-56" target="ldGf9XZsLyRZcBgSeUy8-61" edge="1">
          <mxGeometry relative="1" as="geometry" />
        </mxCell>
        <mxCell id="ldGf9XZsLyRZcBgSeUy8-63" style="edgeStyle=none;rounded=0;orthogonalLoop=1;jettySize=auto;html=1;exitX=0.25;exitY=1;exitDx=0;exitDy=0;entryX=0.5;entryY=0;entryDx=0;entryDy=0;" parent="1" source="ldGf9XZsLyRZcBgSeUy8-56" target="ldGf9XZsLyRZcBgSeUy8-59" edge="1">
          <mxGeometry relative="1" as="geometry" />
        </mxCell>
        <mxCell id="ldGf9XZsLyRZcBgSeUy8-64" style="edgeStyle=none;rounded=0;orthogonalLoop=1;jettySize=auto;html=1;exitX=0.5;exitY=1;exitDx=0;exitDy=0;entryX=0.6;entryY=0.033;entryDx=0;entryDy=0;entryPerimeter=0;" parent="1" source="ldGf9XZsLyRZcBgSeUy8-56" target="ldGf9XZsLyRZcBgSeUy8-58" edge="1">
          <mxGeometry relative="1" as="geometry" />
        </mxCell>
        <mxCell id="ldGf9XZsLyRZcBgSeUy8-65" style="edgeStyle=none;rounded=0;orthogonalLoop=1;jettySize=auto;html=1;exitX=0.75;exitY=1;exitDx=0;exitDy=0;entryX=0.5;entryY=0;entryDx=0;entryDy=0;" parent="1" source="ldGf9XZsLyRZcBgSeUy8-56" target="ldGf9XZsLyRZcBgSeUy8-57" edge="1">
          <mxGeometry relative="1" as="geometry" />
        </mxCell>
        <mxCell id="EZ2-l9n4eVcmhHuR-73A-3" style="edgeStyle=orthogonalEdgeStyle;rounded=1;orthogonalLoop=1;jettySize=auto;html=1;exitX=1;exitY=0.5;exitDx=0;exitDy=0;entryX=0;entryY=0.5;entryDx=0;entryDy=0;" edge="1" parent="1" source="ldGf9XZsLyRZcBgSeUy8-56" target="EZ2-l9n4eVcmhHuR-73A-1">
          <mxGeometry relative="1" as="geometry" />
        </mxCell>
        <mxCell id="ldGf9XZsLyRZcBgSeUy8-56" value="file " style="whiteSpace=wrap;html=1;align=center;" parent="1" vertex="1">
          <mxGeometry x="660" y="814" width="130" height="40" as="geometry" />
        </mxCell>
        <mxCell id="ldGf9XZsLyRZcBgSeUy8-57" value="updated_at" style="ellipse;whiteSpace=wrap;html=1;align=center;" parent="1" vertex="1">
          <mxGeometry x="740" y="939" width="90" height="30" as="geometry" />
        </mxCell>
        <mxCell id="ldGf9XZsLyRZcBgSeUy8-58" value="created_at" style="ellipse;whiteSpace=wrap;html=1;align=center;" parent="1" vertex="1">
          <mxGeometry x="700" y="899" width="70" height="30" as="geometry" />
        </mxCell>
        <mxCell id="ldGf9XZsLyRZcBgSeUy8-59" value="name" style="ellipse;whiteSpace=wrap;html=1;align=center;" parent="1" vertex="1">
          <mxGeometry x="650" y="939" width="70" height="30" as="geometry" />
        </mxCell>
        <mxCell id="ldGf9XZsLyRZcBgSeUy8-61" value="id" style="ellipse;whiteSpace=wrap;html=1;align=center;fontStyle=4;" parent="1" vertex="1">
          <mxGeometry x="590" y="909" width="80" height="20" as="geometry" />
        </mxCell>
        <mxCell id="ldGf9XZsLyRZcBgSeUy8-67" value="" style="endArrow=none;html=1;rounded=0;entryX=0.5;entryY=0;entryDx=0;entryDy=0;" parent="1" edge="1" target="ldGf9XZsLyRZcBgSeUy8-56">
          <mxGeometry relative="1" as="geometry">
            <mxPoint x="724.5" y="659" as="sourcePoint" />
            <mxPoint x="724.5" y="799" as="targetPoint" />
          </mxGeometry>
        </mxCell>
        <mxCell id="ldGf9XZsLyRZcBgSeUy8-74" style="edgeStyle=none;rounded=0;orthogonalLoop=1;jettySize=auto;html=1;exitX=0.25;exitY=1;exitDx=0;exitDy=0;entryX=0.5;entryY=0;entryDx=0;entryDy=0;" parent="1" source="ldGf9XZsLyRZcBgSeUy8-68" target="ldGf9XZsLyRZcBgSeUy8-69" edge="1">
          <mxGeometry relative="1" as="geometry" />
        </mxCell>
        <mxCell id="ldGf9XZsLyRZcBgSeUy8-75" style="edgeStyle=none;rounded=0;orthogonalLoop=1;jettySize=auto;html=1;exitX=0.75;exitY=1;exitDx=0;exitDy=0;" parent="1" source="ldGf9XZsLyRZcBgSeUy8-68" target="ldGf9XZsLyRZcBgSeUy8-73" edge="1">
          <mxGeometry relative="1" as="geometry" />
        </mxCell>
        <mxCell id="ldGf9XZsLyRZcBgSeUy8-76" style="edgeStyle=none;rounded=0;orthogonalLoop=1;jettySize=auto;html=1;exitX=1;exitY=0;exitDx=0;exitDy=0;" parent="1" source="ldGf9XZsLyRZcBgSeUy8-68" target="ldGf9XZsLyRZcBgSeUy8-72" edge="1">
          <mxGeometry relative="1" as="geometry" />
        </mxCell>
        <mxCell id="ldGf9XZsLyRZcBgSeUy8-77" style="edgeStyle=none;rounded=0;orthogonalLoop=1;jettySize=auto;html=1;exitX=0;exitY=0;exitDx=0;exitDy=0;entryX=0.675;entryY=1.1;entryDx=0;entryDy=0;entryPerimeter=0;" parent="1" source="ldGf9XZsLyRZcBgSeUy8-68" target="ldGf9XZsLyRZcBgSeUy8-71" edge="1">
          <mxGeometry relative="1" as="geometry" />
        </mxCell>
        <mxCell id="ldGf9XZsLyRZcBgSeUy8-68" value="commit" style="whiteSpace=wrap;html=1;align=center;" parent="1" vertex="1">
          <mxGeometry x="950" y="609" width="140" height="50" as="geometry" />
        </mxCell>
        <mxCell id="ldGf9XZsLyRZcBgSeUy8-69" value="hash" style="ellipse;whiteSpace=wrap;html=1;align=center;fontStyle=4;" parent="1" vertex="1">
          <mxGeometry x="940" y="689" width="70" height="30" as="geometry" />
        </mxCell>
        <mxCell id="ldGf9XZsLyRZcBgSeUy8-71" value="updated_at" style="ellipse;whiteSpace=wrap;html=1;align=center;" parent="1" vertex="1">
          <mxGeometry x="897" y="549" width="80" height="30" as="geometry" />
        </mxCell>
        <mxCell id="ldGf9XZsLyRZcBgSeUy8-72" value="created_at" style="ellipse;whiteSpace=wrap;html=1;align=center;" parent="1" vertex="1">
          <mxGeometry x="1050" y="549" width="70" height="30" as="geometry" />
        </mxCell>
        <mxCell id="ldGf9XZsLyRZcBgSeUy8-73" value="message" style="ellipse;whiteSpace=wrap;html=1;align=center;" parent="1" vertex="1">
          <mxGeometry x="1030" y="689" width="70" height="30" as="geometry" />
        </mxCell>
        <mxCell id="ldGf9XZsLyRZcBgSeUy8-78" value="" style="endArrow=none;html=1;rounded=0;entryX=0;entryY=0.5;entryDx=0;entryDy=0;" parent="1" target="ldGf9XZsLyRZcBgSeUy8-68" edge="1">
          <mxGeometry relative="1" as="geometry">
            <mxPoint x="772.5" y="633.5" as="sourcePoint" />
            <mxPoint x="940" y="634" as="targetPoint" />
            <Array as="points">
              <mxPoint x="852.5" y="633.5" />
            </Array>
          </mxGeometry>
        </mxCell>
        <mxCell id="ldGf9XZsLyRZcBgSeUy8-80" style="edgeStyle=none;rounded=0;orthogonalLoop=1;jettySize=auto;html=1;entryX=0.5;entryY=0;entryDx=0;entryDy=0;" parent="1" source="ldGf9XZsLyRZcBgSeUy8-68" target="ldGf9XZsLyRZcBgSeUy8-68" edge="1">
          <mxGeometry relative="1" as="geometry" />
        </mxCell>
        <mxCell id="ldGf9XZsLyRZcBgSeUy8-81" value="has" style="shape=rhombus;perimeter=rhombusPerimeter;whiteSpace=wrap;html=1;align=center;" parent="1" vertex="1">
          <mxGeometry x="1140" y="606.5" width="90" height="55" as="geometry" />
        </mxCell>
        <mxCell id="ldGf9XZsLyRZcBgSeUy8-86" style="edgeStyle=none;rounded=0;orthogonalLoop=1;jettySize=auto;html=1;exitX=0;exitY=0;exitDx=0;exitDy=0;entryX=0.3;entryY=1.05;entryDx=0;entryDy=0;entryPerimeter=0;" parent="1" source="ldGf9XZsLyRZcBgSeUy8-82" target="ldGf9XZsLyRZcBgSeUy8-83" edge="1">
          <mxGeometry relative="1" as="geometry" />
        </mxCell>
        <mxCell id="ldGf9XZsLyRZcBgSeUy8-87" style="edgeStyle=none;rounded=0;orthogonalLoop=1;jettySize=auto;html=1;exitX=0.25;exitY=0;exitDx=0;exitDy=0;entryX=0.5;entryY=1;entryDx=0;entryDy=0;" parent="1" source="ldGf9XZsLyRZcBgSeUy8-82" target="ldGf9XZsLyRZcBgSeUy8-84" edge="1">
          <mxGeometry relative="1" as="geometry" />
        </mxCell>
        <mxCell id="ldGf9XZsLyRZcBgSeUy8-88" style="edgeStyle=none;rounded=0;orthogonalLoop=1;jettySize=auto;html=1;exitX=0.75;exitY=0;exitDx=0;exitDy=0;" parent="1" source="ldGf9XZsLyRZcBgSeUy8-82" target="ldGf9XZsLyRZcBgSeUy8-85" edge="1">
          <mxGeometry relative="1" as="geometry" />
        </mxCell>
        <mxCell id="ldGf9XZsLyRZcBgSeUy8-90" style="edgeStyle=none;rounded=0;orthogonalLoop=1;jettySize=auto;html=1;exitX=1;exitY=0;exitDx=0;exitDy=0;entryX=0.5;entryY=1;entryDx=0;entryDy=0;" parent="1" source="ldGf9XZsLyRZcBgSeUy8-82" target="ldGf9XZsLyRZcBgSeUy8-89" edge="1">
          <mxGeometry relative="1" as="geometry" />
        </mxCell>
        <mxCell id="ldGf9XZsLyRZcBgSeUy8-92" style="edgeStyle=none;rounded=0;orthogonalLoop=1;jettySize=auto;html=1;exitX=0;exitY=0.5;exitDx=0;exitDy=0;entryX=1;entryY=0.5;entryDx=0;entryDy=0;" parent="1" source="ldGf9XZsLyRZcBgSeUy8-82" target="ldGf9XZsLyRZcBgSeUy8-91" edge="1">
          <mxGeometry relative="1" as="geometry">
            <mxPoint x="270" y="141.88" as="targetPoint" />
          </mxGeometry>
        </mxCell>
        <mxCell id="ldGf9XZsLyRZcBgSeUy8-82" value="organization" style="whiteSpace=wrap;html=1;align=center;" parent="1" vertex="1">
          <mxGeometry x="305" y="129.38" width="160" height="40" as="geometry" />
        </mxCell>
        <mxCell id="ldGf9XZsLyRZcBgSeUy8-83" value="id" style="ellipse;whiteSpace=wrap;html=1;align=center;fontStyle=4;" parent="1" vertex="1">
          <mxGeometry x="240" y="79.38" width="60" height="20" as="geometry" />
        </mxCell>
        <mxCell id="ldGf9XZsLyRZcBgSeUy8-84" value="name" style="ellipse;whiteSpace=wrap;html=1;align=center;" parent="1" vertex="1">
          <mxGeometry x="322" y="79.38" width="58" height="30" as="geometry" />
        </mxCell>
        <mxCell id="ldGf9XZsLyRZcBgSeUy8-85" value="location" style="ellipse;whiteSpace=wrap;html=1;align=center;" parent="1" vertex="1">
          <mxGeometry x="420" y="69.38" width="70" height="30" as="geometry" />
        </mxCell>
        <mxCell id="ldGf9XZsLyRZcBgSeUy8-89" value="created_at" style="ellipse;whiteSpace=wrap;html=1;align=center;" parent="1" vertex="1">
          <mxGeometry x="510" y="79.38" width="60" height="30" as="geometry" />
        </mxCell>
        <mxCell id="ldGf9XZsLyRZcBgSeUy8-91" value="updated_at" style="ellipse;whiteSpace=wrap;html=1;align=center;" parent="1" vertex="1">
          <mxGeometry x="150" y="136.88" width="80" height="25" as="geometry" />
        </mxCell>
        <mxCell id="ldGf9XZsLyRZcBgSeUy8-97" style="edgeStyle=none;rounded=0;orthogonalLoop=1;jettySize=auto;html=1;exitX=0.5;exitY=0;exitDx=0;exitDy=0;entryX=0.308;entryY=1.1;entryDx=0;entryDy=0;entryPerimeter=0;" parent="1" source="ldGf9XZsLyRZcBgSeUy8-94" target="ldGf9XZsLyRZcBgSeUy8-95" edge="1">
          <mxGeometry relative="1" as="geometry" />
        </mxCell>
        <mxCell id="ldGf9XZsLyRZcBgSeUy8-98" style="edgeStyle=none;rounded=0;orthogonalLoop=1;jettySize=auto;html=1;exitX=0.75;exitY=0;exitDx=0;exitDy=0;entryX=0;entryY=1;entryDx=0;entryDy=0;" parent="1" source="ldGf9XZsLyRZcBgSeUy8-94" target="ldGf9XZsLyRZcBgSeUy8-96" edge="1">
          <mxGeometry relative="1" as="geometry" />
        </mxCell>
        <mxCell id="ldGf9XZsLyRZcBgSeUy8-100" style="edgeStyle=none;rounded=0;orthogonalLoop=1;jettySize=auto;html=1;exitX=1;exitY=0.25;exitDx=0;exitDy=0;" parent="1" source="ldGf9XZsLyRZcBgSeUy8-94" target="ldGf9XZsLyRZcBgSeUy8-99" edge="1">
          <mxGeometry relative="1" as="geometry" />
        </mxCell>
        <mxCell id="ldGf9XZsLyRZcBgSeUy8-102" style="edgeStyle=none;rounded=0;orthogonalLoop=1;jettySize=auto;html=1;exitX=1;exitY=0.5;exitDx=0;exitDy=0;entryX=0;entryY=0.5;entryDx=0;entryDy=0;" parent="1" source="ldGf9XZsLyRZcBgSeUy8-94" target="ldGf9XZsLyRZcBgSeUy8-101" edge="1">
          <mxGeometry relative="1" as="geometry" />
        </mxCell>
        <mxCell id="Y7WxunnAGhrs0RHYik_--16" style="edgeStyle=none;rounded=0;orthogonalLoop=1;jettySize=auto;html=1;entryX=0.5;entryY=1;entryDx=0;entryDy=0;" parent="1" source="ldGf9XZsLyRZcBgSeUy8-94" target="Y7WxunnAGhrs0RHYik_--15" edge="1">
          <mxGeometry relative="1" as="geometry" />
        </mxCell>
        <mxCell id="EZ2-l9n4eVcmhHuR-73A-2" style="edgeStyle=orthogonalEdgeStyle;orthogonalLoop=1;jettySize=auto;html=1;exitX=0.5;exitY=1;exitDx=0;exitDy=0;entryX=1;entryY=0.5;entryDx=0;entryDy=0;rounded=1;" edge="1" parent="1" source="ldGf9XZsLyRZcBgSeUy8-94" target="EZ2-l9n4eVcmhHuR-73A-1">
          <mxGeometry relative="1" as="geometry" />
        </mxCell>
        <mxCell id="ldGf9XZsLyRZcBgSeUy8-94" value="branch" style="whiteSpace=wrap;html=1;align=center;" parent="1" vertex="1">
          <mxGeometry x="1298.5" y="679" width="140" height="50" as="geometry" />
        </mxCell>
        <mxCell id="ldGf9XZsLyRZcBgSeUy8-95" value="id" style="ellipse;whiteSpace=wrap;html=1;align=center;fontStyle=4;" parent="1" vertex="1">
          <mxGeometry x="1520" y="549" width="60" height="20" as="geometry" />
        </mxCell>
        <mxCell id="ldGf9XZsLyRZcBgSeUy8-96" value="name" style="ellipse;whiteSpace=wrap;html=1;align=center;" parent="1" vertex="1">
          <mxGeometry x="1510" y="621.5" width="70" height="25" as="geometry" />
        </mxCell>
        <mxCell id="ldGf9XZsLyRZcBgSeUy8-99" value="updated_at" style="ellipse;whiteSpace=wrap;html=1;align=center;" parent="1" vertex="1">
          <mxGeometry x="1530" y="709" width="60" height="20" as="geometry" />
        </mxCell>
        <mxCell id="ldGf9XZsLyRZcBgSeUy8-101" value="created_at" style="ellipse;whiteSpace=wrap;html=1;align=center;" parent="1" vertex="1">
          <mxGeometry x="1480" y="789" width="70" height="30" as="geometry" />
        </mxCell>
        <mxCell id="ldGf9XZsLyRZcBgSeUy8-106" value="" style="endArrow=none;html=1;rounded=0;exitX=1;exitY=0.5;exitDx=0;exitDy=0;" parent="1" source="ldGf9XZsLyRZcBgSeUy8-68" target="ldGf9XZsLyRZcBgSeUy8-81" edge="1">
          <mxGeometry relative="1" as="geometry">
            <mxPoint x="1090" y="629" as="sourcePoint" />
            <mxPoint x="1021.5" y="806.5" as="targetPoint" />
          </mxGeometry>
        </mxCell>
        <mxCell id="ldGf9XZsLyRZcBgSeUy8-107" value="" style="edgeStyle=entityRelationEdgeStyle;fontSize=12;html=1;endArrow=ERzeroToOne;endFill=1;entryX=0;entryY=0.75;entryDx=0;entryDy=0;exitX=1;exitY=0.5;exitDx=0;exitDy=0;" parent="1" source="ldGf9XZsLyRZcBgSeUy8-81" target="ldGf9XZsLyRZcBgSeUy8-94" edge="1">
          <mxGeometry width="100" height="100" relative="1" as="geometry">
            <mxPoint x="1060" y="839" as="sourcePoint" />
            <mxPoint x="1160" y="739" as="targetPoint" />
          </mxGeometry>
        </mxCell>
        <mxCell id="Y7WxunnAGhrs0RHYik_--13" style="edgeStyle=none;rounded=0;orthogonalLoop=1;jettySize=auto;html=1;entryX=0.5;entryY=1;entryDx=0;entryDy=0;endArrow=ERmany;endFill=0;" parent="1" source="Y7WxunnAGhrs0RHYik_--12" target="ldGf9XZsLyRZcBgSeUy8-82" edge="1">
          <mxGeometry relative="1" as="geometry" />
        </mxCell>
        <mxCell id="Y7WxunnAGhrs0RHYik_--14" style="edgeStyle=none;rounded=0;orthogonalLoop=1;jettySize=auto;html=1;entryX=0.5;entryY=0;entryDx=0;entryDy=0;endArrow=none;endFill=0;" parent="1" source="Y7WxunnAGhrs0RHYik_--12" target="ldGf9XZsLyRZcBgSeUy8-1" edge="1">
          <mxGeometry relative="1" as="geometry" />
        </mxCell>
        <mxCell id="Y7WxunnAGhrs0RHYik_--12" value="has" style="rhombus;whiteSpace=wrap;html=1;" parent="1" vertex="1">
          <mxGeometry x="345" y="256.38" width="80" height="54" as="geometry" />
        </mxCell>
        <mxCell id="Y7WxunnAGhrs0RHYik_--15" value="has" style="shape=rhombus;perimeter=rhombusPerimeter;whiteSpace=wrap;html=1;align=center;" parent="1" vertex="1">
          <mxGeometry x="1323.5" y="539" width="90" height="55" as="geometry" />
        </mxCell>
        <mxCell id="EZ2-l9n4eVcmhHuR-73A-1" value="has" style="shape=rhombus;perimeter=rhombusPerimeter;whiteSpace=wrap;html=1;align=center;" vertex="1" parent="1">
          <mxGeometry x="1067" y="806.5" width="90" height="55" as="geometry" />
        </mxCell>
        <mxCell id="EZ2-l9n4eVcmhHuR-73A-11" style="rounded=1;orthogonalLoop=1;jettySize=auto;html=1;entryX=0.449;entryY=-0.021;entryDx=0;entryDy=0;entryPerimeter=0;exitX=0;exitY=1;exitDx=0;exitDy=0;" edge="1" parent="1" source="EZ2-l9n4eVcmhHuR-73A-7" target="EZ2-l9n4eVcmhHuR-73A-9">
          <mxGeometry relative="1" as="geometry" />
        </mxCell>
        <mxCell id="EZ2-l9n4eVcmhHuR-73A-12" style="edgeStyle=none;rounded=1;orthogonalLoop=1;jettySize=auto;html=1;entryX=0.5;entryY=0;entryDx=0;entryDy=0;" edge="1" parent="1" source="EZ2-l9n4eVcmhHuR-73A-7" target="EZ2-l9n4eVcmhHuR-73A-10">
          <mxGeometry relative="1" as="geometry" />
        </mxCell>
        <mxCell id="EZ2-l9n4eVcmhHuR-73A-7" value="d" style="ellipse;whiteSpace=wrap;html=1;aspect=fixed;" vertex="1" parent="1">
          <mxGeometry x="370" y="569.38" width="29.25" height="29.25" as="geometry" />
        </mxCell>
        <mxCell id="EZ2-l9n4eVcmhHuR-73A-9" value="Premium" style="whiteSpace=wrap;html=1;align=center;" vertex="1" parent="1">
          <mxGeometry x="220" y="679" width="130" height="40" as="geometry" />
        </mxCell>
        <mxCell id="EZ2-l9n4eVcmhHuR-73A-10" value="Standard" style="whiteSpace=wrap;html=1;align=center;" vertex="1" parent="1">
          <mxGeometry x="414" y="679" width="130" height="40" as="geometry" />
        </mxCell>
      </root>
    </mxGraphModel>
  </diagram>
</mxfile>
